<svg xmlns="http://www.w3.org/2000/svg" xmlns:xlink="http://www.w3.org/1999/xlink" viewBox="0 0 639 639.36"><defs><style>.cls-1{fill:none;}.cls-2{isolation:isolate;}.cls-3{fill:#298aff;}.cls-4{fill:#003580;}.cls-5{mix-blend-mode:soft-light;}.cls-6{clip-path:url(#clip-path);}.cls-7{fill:#fff;}.cls-10,.cls-11,.cls-8,.cls-9{fill:#f47721;stroke-miterlimit:10;stroke-width:7px;}.cls-8{stroke:url(#radial-gradient);}.cls-9{stroke:url(#radial-gradient-2);}.cls-10{stroke:url(#radial-gradient-3);}.cls-11{stroke:url(#radial-gradient-4);}</style><clipPath id="clip-path"><path class="cls-1" d="M455.36,302.51A131.28,131.28,0,1,1,399.72,195.2l0,0a131.18,131.18,0,0,1,55.62,107.29Z"/></clipPath><radialGradient id="radial-gradient" cx="288.77" cy="302.53" r="153.88" gradientUnits="userSpaceOnUse"><stop offset="0" stop-color="#ffd555"/><stop offset="1" stop-color="#e97b00"/></radialGradient><radialGradient id="radial-gradient-2" cx="324.04" cy="275.21" r="190.46" xlink:href="#radial-gradient"/><radialGradient id="radial-gradient-3" cx="346.76" cy="302.52" r="225.6" xlink:href="#radial-gradient"/><radialGradient id="radial-gradient-4" cx="324.06" cy="322.12" r="260.03" xlink:href="#radial-gradient"/></defs><g class="cls-2"><g id="Layer_1" data-name="Layer 1"><path class="cls-3" d="M455.36,302.51A131.28,131.28,0,1,1,399.72,195.2l0,0a131.18,131.18,0,0,1,55.62,107.29Z"/><path class="cls-4" d="M430.57,302.51a106.51,106.51,0,1,1-45.14-87h0a107.12,107.12,0,0,1,30.78,33.64A106,106,0,0,1,430.57,302.51Z"/><g class="cls-5"><g class="cls-6"><path class="cls-7" d="M178.19,306.66s140.27,64.11,285.52-32.45,0-4.18,0-4.18l-23.24-98.81L329.09,131l-157,80.9Z"/></g></g><path class="cls-8" d="M422.77,433.92a162.7,162.7,0,0,1-83.51,34,138.27,138.27,0,0,1-22.93.6c-3.82-.25-7.68-.09-11.47-.68l-11.4-1.61c-15-2.92-30-7.12-43.72-14.17l-5.23-2.45-5-2.93c-3.29-2-6.68-3.85-9.89-6-6.19-4.59-12.57-9-18.1-14.36-5.95-4.95-10.92-10.88-16.17-16.54-2.46-3-4.69-6.13-7-9.19-1.15-1.55-2.34-3.07-3.45-4.64l-3-4.94c-8.52-12.91-14.45-27.37-19-42.11l-2.93-11.22c-.87-3.76-1.28-7.62-1.93-11.43l-.89-5.73c-.29-1.92-.27-3.86-.41-5.78l-.62-11.59c.31-30.88,8.47-61.93,25-88.06,3.76-6.77,8.79-12.69,13.35-18.9,2.55-2.9,5.19-5.71,7.79-8.57,1.32-1.39,2.54-2.9,4-4.2l4.3-3.88c2.92-2.52,5.6-5.33,8.72-7.59l9.3-6.89c3.07-2.33,6.56-4,9.82-6.08a81.48,81.48,0,0,1,10.15-5.5L259,148.63l10.88-3.86c1.82-.6,3.6-1.36,5.46-1.83l5.6-1.38c3.75-.84,7.43-2,11.22-2.57,7.61-1,15.17-2.46,22.86-2.43a145.2,145.2,0,0,1,22.94.39,163.12,163.12,0,0,1,83.77,33.4,172.66,172.66,0,0,0-40.1-20.75,164.23,164.23,0,0,0-44-9.07,144.65,144.65,0,0,0-22.42.15c-7.5.13-14.83,1.7-22.2,2.85-3.67.64-7.23,1.85-10.84,2.74l-5.4,1.45c-1.8.5-3.5,1.28-5.25,1.9l-10.45,4-10,5c-13.09,7-25.54,15.38-36.25,25.69l-4.1,3.75c-1.36,1.27-2.52,2.73-3.79,4.08l-7.43,8.29c-4.33,6-9.13,11.72-12.69,18.26-15.75,25.21-23.29,55-23.42,84.55l.52,11.09c.13,1.85.08,3.71.34,5.54l.82,5.49c.61,3.65,1,7.36,1.77,11L169.58,347c4.25,14.14,9.81,28.06,17.91,40.51l2.87,4.77c1.06,1.52,2.2,3,3.29,4.48,2.24,3,4.35,6,6.7,8.89,5,5.46,9.74,11.22,15.44,16,5.27,5.27,11.43,9.45,17.3,14,3,2.12,6.28,4,9.41,6l4.74,2.94,5,2.48c13.11,7.11,27.52,11.49,42.06,14.65l11.05,1.81c3.68.66,7.44.58,11.17.91a139.86,139.86,0,0,0,22.42-.05,164.07,164.07,0,0,0,43.9-9.39A173.08,173.08,0,0,0,422.77,433.92Z"/><path class="cls-9" d="M455.46,449.66a218.18,218.18,0,0,0,20.17-21.74,208.8,208.8,0,0,0,16.75-24.37A194.19,194.19,0,0,0,514,348.88c1.23-4.75,1.93-9.62,2.86-14.43.56-4.87,1.42-9.71,1.65-14.61a171.23,171.23,0,0,0,0-29.35l-.43-7.33c-.27-2.43-.74-4.83-1.11-7.25-.86-4.81-1.37-9.69-2.51-14.44l-3.78-14.17a51.8,51.8,0,0,0-2.31-6.94l-2.58-6.85a197.22,197.22,0,0,0-71.36-90.45,208.5,208.5,0,0,0-52.3-25.49,214.87,214.87,0,0,0-57.5-8.66A214.75,214.75,0,0,0,267,117.28a211,211,0,0,0-52.45,25.17A204.22,204.22,0,0,0,172,182.12l-8.79,11.68-7.65,12.46c-2.77,4-4.58,8.59-6.83,12.92l-3.24,6.57c-1.07,2.19-1.77,4.54-2.68,6.8-7.55,18-11.45,37.46-13,56.92-.23,4.88-.7,9.77-.74,14.67s.11,9.8.58,14.68c.23,4.9,1,9.75,1.58,14.62.87,4.82,1.56,9.69,2.76,14.44a195,195,0,0,0,21.29,54.79,211.83,211.83,0,0,0,16.63,24.46A220.36,220.36,0,0,0,191.89,449a196.2,196.2,0,0,1-61.47-100.26,185.68,185.68,0,0,1-5-29.55c-.56-5-.67-10-.84-15s.35-10,.5-15c1.27-19.94,4.95-40,12.39-58.64.89-2.34,1.58-4.78,2.64-7.05l3.22-6.82c2.23-4.49,4-9.23,6.81-13.44L158,190.3l9-12.12A210.11,210.11,0,0,1,210.81,137,217.59,217.59,0,0,1,265,110.59a220.78,220.78,0,0,1,59.61-9,222.63,222.63,0,0,1,59.57,9.31,215.87,215.87,0,0,1,54,26.69c32.84,23.19,59.2,56,72.81,93.92l2.53,7.1a54.7,54.7,0,0,1,2.26,7.17l3.63,14.62c1.09,4.89,1.54,9.91,2.33,14.85.33,2.48.78,5,1,7.45l.32,7.51a174.63,174.63,0,0,1-.47,30c-.33,5-1.28,9.92-1.94,14.88-1,4.89-1.79,9.84-3.19,14.65A196.41,196.41,0,0,1,455.46,449.66Z"/><path class="cls-10" d="M135.51,170.35c13.84-19.93,30.47-38.17,50-52.83,9.56-7.61,20-14,30.65-20,5.48-2.69,10.8-5.74,16.48-8,2.81-1.2,5.6-2.47,8.43-3.62l8.63-3.15A232.42,232.42,0,0,1,512.08,441.08c-29.32,39.6-71.4,69.71-118.54,84A234,234,0,0,1,248.79,522l-8.62-3.16-8.41-3.67-4.21-1.83-4.09-2.08-8.16-4.17c-10.58-6.1-21.05-12.46-30.56-20.11-19.47-14.74-36-33.06-49.78-53,28.56,39.24,69,69.86,115,84.66a229.62,229.62,0,0,0,141.91,1.08c45.66-14.72,86.58-43.81,114.85-82.54a228.18,228.18,0,0,0,.55-268.45c-28.07-38.88-68.92-68.1-114.51-83a229.42,229.42,0,0,0-141.92.47C204.79,100.8,164.2,131.19,135.51,170.35Z"/><path class="cls-11" d="M455.46,74.43a263.68,263.68,0,0,1,113.3,126.42,270.08,270.08,0,0,1,20.2,84c.72,14.45,1,29-.42,43.4A280.15,280.15,0,0,1,581.1,371a262.4,262.4,0,0,1-35.38,79.14,267.79,267.79,0,0,1-59.13,63.49c-45.84,35.83-103.87,55.54-162.07,55.69a266.41,266.41,0,0,1-162.27-55.11A269.89,269.89,0,0,1,102.89,451a262.09,262.09,0,0,1-35.63-79,279.53,279.53,0,0,1-7.62-42.77,291,291,0,0,1-.52-43.39A268,268,0,0,1,79,201.7c11.17-26.67,27.09-51.18,46.06-72.82a268.32,268.32,0,0,1,66.82-54,276.55,276.55,0,0,0-65.36,55.24c-18.42,21.85-33.69,46.41-44.2,72.92a264.93,264.93,0,0,0-18.59,83,285.89,285.89,0,0,0,1,42.61,273.6,273.6,0,0,0,8,41.81,248,248,0,0,0,14.67,39.9A258.86,258.86,0,0,0,166.3,509,259.47,259.47,0,0,0,324.51,562c56.62.07,113.17-18.87,158-53.64a259.66,259.66,0,0,0,78.61-98.85,251.42,251.42,0,0,0,14.54-40,273.56,273.56,0,0,0,7.78-41.84c1.58-14.15,1.44-28.39.9-42.61A263.7,263.7,0,0,0,521,129.45,277,277,0,0,0,455.46,74.43Z"/></g></g></svg>